<svg width="1440" height="871" viewBox="0 0 1440 871" fill="none" xmlns="http://www.w3.org/2000/svg">
<g clip-path="url(#clip0_999_262)">
<g clip-path="url(#clip1_999_262)">
<path d="M114.882 -234.737C114.882 -234.737 338.98 -166.175 185.623 -69.3692C112.042 -22.5832 245.262 66.8923 197.241 127.908C157.74 178.144 46.4653 125.321 -115.154 113.894C-213.261 106.995 -271.351 167.579 -271.351 167.579" stroke="#00FFF9" stroke-opacity="0.14" stroke-width="1.52" stroke-miterlimit="3.7205"/>
<path d="M246.294 -211.668C246.294 -211.668 484.592 -129.523 315.744 -20.6429C228.222 35.6296 394.488 129.848 333.558 199.704C280.632 260.289 124.951 191.727 -56.8054 184.181C-183.312 179.222 -248.373 260.289 -248.373 260.289" stroke="#00EFEA" stroke-opacity="0.14" stroke-width="1.52" stroke-miterlimit="3.7205"/>
<path d="M377.965 -188.598C377.965 -188.598 630.978 -92.4388 445.865 28.2992C344.66 94.2739 543.714 192.805 469.618 271.931C403.266 343.08 202.921 258.995 1.54259 255.114C-153.105 252.096 -225.137 353.429 -225.137 353.429" stroke="#00DEDB" stroke-opacity="0.14" stroke-width="1.52" stroke-miterlimit="3.7205"/>
<path d="M509.635 -165.744C509.635 -165.744 777.365 -55.5706 576.245 76.81C461.614 152.487 692.941 255.33 605.935 343.512C525.9 425.01 281.407 326.048 59.8906 325.401C-123.157 324.754 -202.159 446.139 -202.159 446.139" stroke="#00CECB" stroke-opacity="0.14" stroke-width="1.52" stroke-miterlimit="3.7205"/>
<path d="M641.305 -142.89C641.305 -142.89 923.493 -18.7023 706.624 125.536C578.31 210.916 842.167 318.071 742.252 415.523C648.534 507.37 359.892 393.747 118.239 396.119C-93.2085 398.275 -179.182 539.28 -179.182 539.28" stroke="#00BEBC" stroke-opacity="0.14" stroke-width="1.52" stroke-miterlimit="3.7205"/>
<path d="M772.976 -119.821C772.976 -119.821 1070.14 18.8126 837.004 174.263C695.264 269.56 991.393 380.595 878.828 487.319C771.427 589.3 438.378 461.231 176.845 466.621C-63.0019 471.58 -155.946 632.205 -155.946 632.205" stroke="#00AEAD" stroke-opacity="0.14" stroke-width="1.52" stroke-miterlimit="3.7205"/>
<path d="M904.388 -96.9666C904.388 -96.9666 1216.27 55.6808 967.125 222.989C811.702 327.988 1140.1 443.336 1014.89 559.331C893.544 671.66 516.606 529.146 234.934 537.339C-33.0534 545.101 -132.968 725.346 -132.968 725.346" stroke="#009D9E" stroke-opacity="0.14" stroke-width="1.52" stroke-miterlimit="3.7205"/>
<path d="M1036.06 -73.8969C1036.06 -73.8969 1362.65 92.7647 1097.25 271.931C928.398 386.417 1289.07 506.077 1150.95 631.558C1015.92 754.021 594.834 597.277 293.024 608.273C-3.10469 618.838 -110.248 818.487 -110.248 818.487" stroke="#008D8F" stroke-opacity="0.14" stroke-width="1.52" stroke-miterlimit="3.7205"/>
<path d="M1167.73 -51.043C1167.73 -51.043 1508.78 129.633 1227.63 320.442C1045.09 444.63 1438.04 568.386 1287.26 703.138C1138.3 835.735 673.319 664.977 351.372 678.56C27.1019 692.358 -87.0123 911.411 -87.0123 911.411" stroke="#007D7F" stroke-opacity="0.14" stroke-width="1.52" stroke-miterlimit="3.7205"/>
<path d="M1299.4 -27.9733C1299.4 -27.9733 1655.17 166.717 1358.01 369.168C1161.79 503.058 1587.27 631.127 1423.84 775.15C1261.19 918.095 752.063 732.892 409.979 749.278C57.0507 766.095 -63.7762 1004.34 -63.7762 1004.34" stroke="#006C70" stroke-opacity="0.14" stroke-width="1.52" stroke-miterlimit="3.7205"/>
<path d="M1430.81 -5.11926C1430.81 -5.11926 1801.3 203.585 1488.13 417.895C1278.23 561.487 1736.23 693.652 1559.9 846.946C1383.56 1000.24 830.291 800.591 468.327 819.78C87.2573 839.831 -40.7985 1097.26 -40.7985 1097.26" stroke="#005C61" stroke-opacity="0.14" stroke-width="1.52" stroke-miterlimit="3.7205"/>
</g>
</g>
<defs>
<clipPath id="clip0_999_262">
<rect width="1440" height="870" fill="white" transform="translate(0 0.546143)"/>
</clipPath>
<clipPath id="clip1_999_262">
<rect width="1796" height="1409" fill="white" transform="translate(-199 -144)"/>
</clipPath>
</defs>
</svg>
