<svg width="102" height="101" viewBox="0 0 102 101" fill="none" xmlns="http://www.w3.org/2000/svg">
<rect x="0.5" width="101" height="101" rx="50.5" fill="url(#paint0_linear_816_450)"/>
<path d="M33.5384 37.4615C34.0482 37.4615 34.4615 37.0482 34.4615 36.5384C34.4615 36.0286 34.0482 35.6154 33.5384 35.6154C33.0286 35.6154 32.6154 36.0286 32.6154 36.5384C32.6154 37.0482 33.0286 37.4615 33.5384 37.4615Z" stroke="#141414" stroke-width="3" stroke-linecap="round" stroke-linejoin="round"/>
<path d="M40 37.4615C40.5098 37.4615 40.9231 37.0482 40.9231 36.5384C40.9231 36.0286 40.5098 35.6154 40 35.6154C39.4902 35.6154 39.0769 36.0286 39.0769 36.5384C39.0769 37.0482 39.4902 37.4615 40 37.4615Z" stroke="#141414" stroke-width="3" stroke-linecap="round" stroke-linejoin="round"/>
<path d="M46.4615 37.4615C46.9713 37.4615 47.3846 37.0482 47.3846 36.5384C47.3846 36.0286 46.9713 35.6154 46.4615 35.6154C45.9517 35.6154 45.5385 36.0286 45.5385 36.5384C45.5385 37.0482 45.9517 37.4615 46.4615 37.4615Z" stroke="#141414" stroke-width="3" stroke-linecap="round" stroke-linejoin="round"/>
<path d="M28 42.0769V71.6154H63.0769M76 58.6923V42.0769M28 31H76V42.0769H28V31Z" stroke="#141414" stroke-width="3" stroke-linecap="round" stroke-linejoin="round"/>
<path d="M68.6153 73.4615C73.7134 73.4615 77.8461 69.3288 77.8461 64.2308C77.8461 59.1328 73.7134 55 68.6153 55C63.5173 55 59.3846 59.1328 59.3846 64.2308C59.3846 69.3288 63.5173 73.4615 68.6153 73.4615Z" stroke="#141414" stroke-width="3" stroke-linecap="round" stroke-linejoin="round"/>
<path d="M75.2615 70.877L83.3846 79" stroke="#141414" stroke-width="3" stroke-linecap="round" stroke-linejoin="round"/>
<defs>
<linearGradient id="paint0_linear_816_450" x1="8.21565" y1="18.0984" x2="51.1518" y2="102.866" gradientUnits="userSpaceOnUse">
<stop stop-color="#00656A"/>
<stop offset="0.109375" stop-color="#00B2BB"/>
<stop offset="0.364583" stop-color="#30FFFF"/>
<stop offset="0.494792" stop-color="#03CCCF"/>
<stop offset="0.708333" stop-color="#1BD4D4"/>
<stop offset="0.78125" stop-color="#41D6DE"/>
<stop offset="0.864583" stop-color="#12ADB5"/>
<stop offset="1" stop-color="#007B7B"/>
</linearGradient>
</defs>
</svg>
