<svg width="102" height="101" viewBox="0 0 102 101" fill="none" xmlns="http://www.w3.org/2000/svg">
<rect x="0.5" width="101" height="101" rx="50.5" fill="url(#paint0_linear_816_420)"/>
<path d="M64.6058 55.4302L70.0381 60.8666C70.7918 61.6037 71.8057 62.0139 72.8598 62.008C73.914 62.0022 74.9233 61.581 75.6688 60.8356C76.4142 60.0903 76.8357 59.081 76.8417 58.0269C76.8477 56.9728 76.4377 55.9588 75.7008 55.205L62.2584 41.7567C59.815 39.3142 57.1163 39.082 54.2345 41.9649L53.3956 42.7937C52.6394 43.5174 51.6298 43.9162 50.5831 43.9047C49.5364 43.8931 48.5359 43.4722 47.7958 42.7319C47.0557 41.9917 46.6349 40.9911 46.6235 39.9444C46.6122 38.8977 47.0111 37.8882 47.735 37.1321L50.5668 34.3043C53.8361 31.031 55.6959 29.8448 58.4476 29.8448L67.6368 25L85.4414 42.7937L74.3604 53.8747" stroke="#141414" stroke-width="3" stroke-miterlimit="10" stroke-linecap="round" stroke-linejoin="round"/>
<path d="M64.5946 55.4293L71.4454 62.2771C72.1968 63.0281 72.6189 64.0468 72.6191 65.1092C72.6193 66.1715 72.1975 67.1904 71.4464 67.9417C70.6954 68.693 69.6767 69.1152 68.6143 69.1154C67.552 69.1156 66.5331 68.6937 65.7818 67.9427L59.5366 61.6945" stroke="#141414" stroke-width="3" stroke-miterlimit="10" stroke-linecap="round" stroke-linejoin="round"/>
<path d="M59.5376 61.6945L64.3674 66.5263C65.0759 67.2849 65.4621 68.2891 65.4445 69.327C65.4269 70.3649 65.0069 71.3554 64.2731 72.0896C63.5393 72.8238 62.549 73.2443 61.5111 73.2625C60.4732 73.2806 59.4689 72.895 58.7098 72.1869L55.88 69.3561" stroke="#141414" stroke-width="3" stroke-miterlimit="10" stroke-linecap="round" stroke-linejoin="round"/>
<path d="M56.1884 69.6644L57.5797 71.0587C58.2992 71.8155 58.6946 72.8233 58.6816 73.8674C58.6686 74.9115 58.2482 75.9092 57.5102 76.6478C56.7721 77.3864 55.7747 77.8075 54.7306 77.8212C53.6865 77.835 52.6784 77.4403 51.9211 76.7214L50.5297 75.326M26.9934 53.8757L17 43.8814L33.0369 27.8405C33.0369 27.8405 38.708 33.8618 40.5018 33.8618C42.6779 33.8618 43.2105 33.1551 44.5058 31.8598C46.6319 29.7317 49.831 29.7948 52.5137 32.4734" stroke="#141414" stroke-width="3" stroke-miterlimit="10" stroke-linecap="round" stroke-linejoin="round"/>
<path d="M34.1505 58.0358C34.5418 57.6688 34.8553 57.2268 35.0725 56.7362C35.2896 56.2456 35.406 55.7164 35.4146 55.1799C35.4232 54.6435 35.3239 54.1108 35.1226 53.6134C34.9214 53.1161 34.6222 52.6643 34.2429 52.2849C33.8636 51.9054 33.4119 51.6061 32.9146 51.4046C32.4174 51.2032 31.8847 51.1037 31.3483 51.1121C30.8118 51.1206 30.2825 51.2367 29.7918 51.4537C29.3012 51.6707 28.8591 51.984 28.4919 52.3752L25.6641 55.205C24.9402 55.9611 24.5412 56.9707 24.5526 58.0173C24.564 59.064 24.9848 60.0646 25.7249 60.8049C26.465 61.5451 27.4655 61.9661 28.5122 61.9776C29.5589 61.9892 30.5685 61.5904 31.3247 60.8666L34.1505 58.0358Z" stroke="#141414" stroke-width="3" stroke-miterlimit="10" stroke-linecap="round" stroke-linejoin="round"/>
<path d="M39.8141 63.6965C40.5648 62.9454 40.9865 61.9269 40.9863 60.8649C40.9861 59.803 40.5641 58.7846 39.8131 58.0338C39.062 57.2831 38.0435 56.8614 36.9815 56.8616C35.9196 56.8618 34.9012 57.2838 34.1504 58.0348L29.9082 62.2771C29.1844 63.0332 28.7854 64.0427 28.7967 65.0894C28.8081 66.1361 29.2289 67.1367 29.969 67.8769C30.7091 68.6171 31.7096 69.0381 32.7563 69.0496C33.803 69.0612 34.8126 68.6624 35.5688 67.9387L39.8141 63.6965ZM45.4727 69.3581C46.1881 68.6006 46.58 67.594 46.5652 66.5522C46.5505 65.5104 46.1302 64.5154 45.3937 63.7784C44.6571 63.0415 43.6623 62.6207 42.6205 62.6054C41.5787 62.5901 40.5719 62.9815 39.8141 63.6965L36.9842 66.5263C36.2651 67.2833 35.87 68.2913 35.8834 69.3353C35.8968 70.3794 36.3175 71.377 37.0558 72.1153C37.7941 72.8537 38.7917 73.2744 39.8358 73.2877C40.8799 73.3011 41.8879 72.9061 42.6449 72.1869L45.4727 69.3581Z" stroke="#141414" stroke-width="3" stroke-miterlimit="10" stroke-linecap="round" stroke-linejoin="round"/>
<path d="M50.825 75.326C51.1968 74.9541 51.4916 74.5126 51.6928 74.0268C51.8939 73.541 51.9974 73.0203 51.9973 72.4945C51.9972 71.9686 51.8935 71.448 51.6922 70.9622C51.4909 70.4765 51.1959 70.0351 50.824 69.6634C50.4521 69.2916 50.0107 68.9967 49.5248 68.7956C49.039 68.5945 48.5183 68.491 47.9925 68.4911C47.4667 68.4912 46.946 68.5948 46.4603 68.7962C45.9745 68.9975 45.5331 69.2925 45.1614 69.6644L43.768 71.0587C43.0385 71.8138 42.6348 72.8251 42.6437 73.8749C42.6526 74.9248 43.0736 75.9291 43.8158 76.6716C44.558 77.4141 45.5622 77.8354 46.612 77.8447C47.6619 77.854 48.6733 77.4506 49.4286 76.7214L50.825 75.326Z" stroke="#141414" stroke-width="3" stroke-miterlimit="10" stroke-linecap="round" stroke-linejoin="round"/>
<defs>
<linearGradient id="paint0_linear_816_420" x1="8.21565" y1="18.0984" x2="51.1518" y2="102.866" gradientUnits="userSpaceOnUse">
<stop stop-color="#00656A"/>
<stop offset="0.109375" stop-color="#00B2BB"/>
<stop offset="0.364583" stop-color="#30FFFF"/>
<stop offset="0.494792" stop-color="#03CCCF"/>
<stop offset="0.708333" stop-color="#1BD4D4"/>
<stop offset="0.78125" stop-color="#41D6DE"/>
<stop offset="0.864583" stop-color="#12ADB5"/>
<stop offset="1" stop-color="#007B7B"/>
</linearGradient>
</defs>
</svg>
