<svg width="102" height="101" viewBox="0 0 102 101" fill="none" xmlns="http://www.w3.org/2000/svg">
<rect x="0.5" width="101" height="101" rx="50.5" fill="url(#paint0_linear_816_408)"/>
<path d="M35.1818 75H21.3636C20.2063 75 19.0964 74.5403 18.2781 73.7219C17.4597 72.9036 17 71.7937 17 70.6364V43.3636C17 42.2063 17.4597 41.0964 18.2781 40.2781C19.0964 39.4597 20.2063 39 21.3636 39H35.1818C36.3391 39 37.449 39.4597 38.2674 40.2781C39.0857 41.0964 39.5455 42.2063 39.5455 43.3636V70.6364C39.5455 71.7937 39.0857 72.9036 38.2674 73.7219C37.449 74.5403 36.3391 75 35.1818 75ZM20.3636 42.3636V71.6364H36.1818V42.3636H20.3636ZM28.2727 70.4545C27.6941 70.4545 27.1391 70.2247 26.7299 69.8155C26.3208 69.4063 26.0909 68.8514 26.0909 68.2727C26.0909 67.6941 26.3208 67.1391 26.7299 66.7299C27.1391 66.3208 27.6941 66.0909 28.2727 66.0909C28.8514 66.0909 29.4063 66.3208 29.8155 66.7299C30.2247 67.1391 30.4545 67.6941 30.4545 68.2727C30.4545 68.8514 30.2247 69.4063 29.8155 69.8155C29.4063 70.2247 28.8514 70.4545 28.2727 70.4545Z" fill="#141414"/>
<path fill-rule="evenodd" clip-rule="evenodd" d="M29.5768 27H83.2543C84.3962 27 85.3188 27.9226 85.3188 29.0645V61.0645C85.3188 62.2065 84.3962 63.129 83.2543 63.129H58.7381V70.3548H69.8349C70.4027 70.3548 70.8672 70.8194 70.8672 71.3871V74.4839C70.8672 74.7677 70.6349 75 70.351 75H42.4801C42.1962 75 41.9639 74.7677 41.9639 74.4839V71.3871C41.9639 70.8194 42.4285 70.3548 42.9962 70.3548H54.093V63.129H42V59.4839H81.6736V30.6452H31.1575V36H27.5123V29.0645C27.5123 27.9226 28.4349 27 29.5768 27Z" fill="#141414"/>
<defs>
<linearGradient id="paint0_linear_816_408" x1="8.21565" y1="18.0984" x2="51.1518" y2="102.866" gradientUnits="userSpaceOnUse">
<stop stop-color="#00656A"/>
<stop offset="0.109375" stop-color="#00B2BB"/>
<stop offset="0.364583" stop-color="#30FFFF"/>
<stop offset="0.494792" stop-color="#03CCCF"/>
<stop offset="0.708333" stop-color="#1BD4D4"/>
<stop offset="0.78125" stop-color="#41D6DE"/>
<stop offset="0.864583" stop-color="#12ADB5"/>
<stop offset="1" stop-color="#007B7B"/>
</linearGradient>
</defs>
</svg>
